<?xml version="1.0" encoding="UTF-8"?>
<!DOCTYPE svg PUBLIC "-//W3C//DTD SVG 1.1//EN" "http://www.w3.org/Graphics/SVG/1.1/DTD/svg11.dtd">
<!-- Creator: CorelDRAW 2021 (64-Bit) -->
<svg xmlns="http://www.w3.org/2000/svg" xml:space="preserve" width="35px" height="29px" version="1.1" style="shape-rendering:geometricPrecision; text-rendering:geometricPrecision; image-rendering:optimizeQuality; fill-rule:evenodd; clip-rule:evenodd"
viewBox="0 0 8.219 6.721"
 xmlns:xlink="http://www.w3.org/1999/xlink"
 xmlns:xodm="http://www.corel.com/coreldraw/odm/2003">
 <defs>
  <style type="text/css">
   <![CDATA[
    .fil0 {fill:#004DFF}
   ]]>
  </style>
 </defs>
 <g id="Layer_x0020_1">
  <metadata id="CorelCorpID_0Corel-Layer"/>
  <path class="fil0" d="M2.988 4.477l0.75 0.001 -0.004 0.75 -0.748 -0.004 0.002 -0.747zm-1.493 -0.001l0.749 0.003 -0.003 0.749 -0.748 -0.002 0.002 -0.75zm1.501 -1.492l0.739 0.003 0.001 0.737c-0.015,0.014 0.003,0.006 -0.022,0.013 -0.052,0.014 -0.724,-0.002 -0.727,-0.003 -0.014,-0.064 -0.005,-0.455 -0.005,-0.573 0,-0.038 -0.017,-0.153 0.014,-0.177zm-0.772 0.002c0.028,0.02 0.014,-0.029 0.021,0.04 0.009,0.081 -0.003,0.694 -0.005,0.706 -0.111,0.01 -0.426,0.002 -0.571,0.002 -0.031,0 -0.062,0 -0.093,0 -0.1,0.002 -0.072,0.002 -0.08,-0.018l0 -0.73 0.728 0zm0.768 -1.495l0.743 0.004 -0.001 0.734c-0.017,0.019 0.007,0.015 -0.091,0.014 -0.156,-0.001 -0.558,0.008 -0.653,-0.002 -0.019,-0.053 -0.007,-0.535 -0.008,-0.663 -0.001,-0.014 -0.002,-0.041 -0.001,-0.053l0.011 -0.034zm-1.497 0.002l0.747 0.003 0 0.741 -0.044 0.002 -0.663 0.001 -0.04 -0.003 0 -0.744zm3.335 2.96c-0.258,-0.366 -0.427,-0.896 -0.311,-1.465 0.091,-0.442 0.294,-0.732 0.593,-1.02 0.055,-0.053 0.116,-0.072 0.116,-0.113l0 -1.09c0,-0.443 -0.329,-0.765 -0.773,-0.765l-3.681 0c-0.313,0 -0.508,0.144 -0.63,0.31 -0.172,0.234 -0.142,0.468 -0.142,0.795l0 5.613 3.733 -0.001c0,-0.577 -0.041,-1.005 0.23,-1.455 0.173,-0.287 0.358,-0.473 0.615,-0.65l0.25 -0.159zm-0.344 2.265c0.399,0 3.619,0.009 3.728,-0.003 0,-0.237 0.023,-0.619 -0.028,-0.829 -0.156,-0.637 -0.909,-0.961 -1.56,-1.021 -0.502,-0.046 -1.066,0.038 -1.449,0.252 -0.339,0.189 -0.696,0.488 -0.696,1.025l0.005 0.576zm0.745 -3.279c0.048,0.59 0.548,1.086 1.198,1.036 0.587,-0.044 1.08,-0.548 1.036,-1.191 -0.041,-0.593 -0.552,-1.09 -1.201,-1.041 -0.582,0.043 -1.085,0.555 -1.033,1.196zm-2.231 1.046l0.729 0 0.001 0.731 -0.729 0 -0.001 -0.731zm-0.014 0.739l0.748 0.004 0.004 -0.75 -0.75 -0.001 -0.002 0.747zm-1.484 -0.739l0.73 0 0 0.731 -0.73 0 0 -0.731zm-0.009 0.741l0.748 0.002 0.003 -0.749 -0.749 -0.003 -0.002 0.75zm0.003 -1.51c0.008,0.02 -0.02,0.02 0.08,0.018 0.031,0 0.062,0 0.093,0 0.145,0 0.46,0.008 0.571,-0.002 0.002,-0.012 0.014,-0.625 0.005,-0.706 -0.007,-0.069 0.007,-0.02 -0.021,-0.04 0.023,0.08 0.008,0.607 0.008,0.732l-0.736 -0.002zm2.24 0.008l-0.744 0.004 0.004 -0.744c-0.031,0.024 -0.014,0.139 -0.014,0.177 0,0.118 -0.009,0.509 0.005,0.573 0.003,0.001 0.675,0.017 0.727,0.003 0.025,-0.007 0.007,0.001 0.022,-0.013zm-0.002 -1.495l-0.742 0.004 0 -0.742 -0.011 0.034c-0.001,0.012 0,0.039 0.001,0.053 0.001,0.128 -0.011,0.61 0.008,0.663 0.095,0.01 0.497,0.001 0.653,0.002 0.098,0.001 0.074,0.005 0.091,-0.014z"/>
 </g>
</svg>
