<?xml version="1.0" encoding="UTF-8"?>
<!DOCTYPE svg PUBLIC "-//W3C//DTD SVG 1.1//EN" "http://www.w3.org/Graphics/SVG/1.1/DTD/svg11.dtd">
<!-- Creator: CorelDRAW 2021 (64-Bit) -->
<svg xmlns="http://www.w3.org/2000/svg" xml:space="preserve" width="16px" height="27px" version="1.1" style="shape-rendering:geometricPrecision; text-rendering:geometricPrecision; image-rendering:optimizeQuality; fill-rule:evenodd; clip-rule:evenodd"
viewBox="0 0 0.303 0.5"
 xmlns:xlink="http://www.w3.org/1999/xlink"
 xmlns:xodm="http://www.corel.com/coreldraw/odm/2003">
 <defs>
  <style type="text/css">
   <![CDATA[
    .fil0 {fill:#004DFF;fill-rule:nonzero}
   ]]>
  </style>
 </defs>
 <g id="Layer_x0020_1">
  <metadata id="CorelCorpID_0Corel-Layer"/>
  <g id="_1813267901488">
   <path class="fil0" d="M0.303 0.151c0,-0.083 -0.068,-0.151 -0.152,-0.151 -0.083,0 -0.151,0.068 -0.151,0.151 0,0.084 0.068,0.152 0.151,0.152 0.084,0 0.152,-0.068 0.152,-0.152zm-0.137 0.072l0 0.019 -0.029 0 0 -0.019c-0.021,-0.003 -0.037,-0.021 -0.037,-0.042l0.029 0c0,0.007 0.007,0.013 0.014,0.013l0.016 0c0.008,0 0.014,-0.006 0.014,-0.014 0,-0.008 -0.006,-0.014 -0.014,-0.014l-0.016 0c-0.024,0 -0.043,-0.02 -0.043,-0.043 0,-0.022 0.016,-0.04 0.037,-0.043l0 -0.019 0.029 0 0 0.019c0.021,0.003 0.036,0.021 0.036,0.043l-0.029 0c0,-0.008 -0.006,-0.015 -0.014,-0.015l-0.016 0c-0.007,0 -0.014,0.007 -0.014,0.015 0,0.007 0.007,0.014 0.014,0.014l0.016 0c0.024,0 0.044,0.019 0.044,0.043 0,0.022 -0.016,0.04 -0.037,0.043z"/>
   <path class="fil0" d="M0.269 0.288c-0.014,0.013 -0.03,0.022 -0.047,0.03 -0.014,0.005 -0.027,0.009 -0.041,0.012l0 0.07 -0.03 0 0 0.026 0.074 0.074 0.073 -0.074 0 -0.026 -0.029 0 0 -0.112z"/>
   <path class="fil0" d="M0.122 0.33c-0.014,-0.003 -0.028,-0.007 -0.041,-0.012 -0.017,-0.008 -0.033,-0.017 -0.047,-0.03l0 0.065 -0.03 0 0 0.027 0.074 0.073 0.073 -0.073 0 -0.027 -0.029 0 0 -0.023z"/>
  </g>
 </g>
</svg>
