<?xml version="1.0" encoding="UTF-8"?>
<!DOCTYPE svg PUBLIC "-//W3C//DTD SVG 1.1//EN" "http://www.w3.org/Graphics/SVG/1.1/DTD/svg11.dtd">
<!-- Creator: CorelDRAW 2021 (64-Bit) -->
<svg xmlns="http://www.w3.org/2000/svg" xml:space="preserve" width="40px" height="39px" version="1.1" style="shape-rendering:geometricPrecision; text-rendering:geometricPrecision; image-rendering:optimizeQuality; fill-rule:evenodd; clip-rule:evenodd"
viewBox="0 0 94.664 92.09"
 xmlns:xlink="http://www.w3.org/1999/xlink"
 xmlns:xodm="http://www.corel.com/coreldraw/odm/2003">
 <defs>
  <style type="text/css">
   <![CDATA[
    .fil0 {fill:#004DFF;fill-rule:nonzero}
   ]]>
  </style>
 </defs>
 <g id="Layer_x0020_1">
  <metadata id="CorelCorpID_0Corel-Layer"/>
  <g id="_1958248933600">
   <g>
    <g>
     <path class="fil0" d="M67.277 28.336c10.626,10.625 10.626,28.335 0,38.961 -10.625,10.625 -28.335,10.625 -38.961,0 -10.626,-10.626 -10.626,-28.336 0,-38.961 10.626,-11.069 28.336,-11.069 38.961,0z"/>
     <path class="fil0" d="M30.973 92.09c-0.444,0 -0.886,0 -1.329,-0.442 -10.183,-3.985 -18.152,-11.069 -23.466,-20.367 -5.312,-8.855 -7.083,-19.48 -5.755,-29.663 0,-1.771 1.771,-3.099 3.542,-2.657 1.771,0 3.099,1.771 3.099,3.542 -1.328,8.855 0.443,17.71 4.87,25.679 4.428,7.97 11.512,14.168 19.924,17.267 1.771,0.886 2.656,2.657 1.771,4.427 0,1.329 -1.328,2.214 -2.656,2.214z"/>
     <path class="fil0" d="M20.346 15.939c-0.885,0 -1.77,-0.443 -2.656,-1.329 -0.886,-1.328 -0.443,-3.542 0.886,-4.427 8.411,-6.642 18.594,-10.183 29.221,-10.183 10.625,0 20.365,3.542 28.778,9.74 1.328,1.328 1.771,3.1 0.442,4.87 -1.328,1.329 -3.099,1.772 -4.87,0.443 -6.641,-5.313 -15.496,-8.412 -24.35,-8.412 -9.298,0 -17.71,3.099 -25.237,8.855 -0.442,0.443 -1.328,0.443 -2.214,0.443l0 0z"/>
     <path class="fil0" d="M64.621 92.09c-1.328,0 -2.656,-0.885 -3.1,-2.214 -0.885,-1.77 0,-3.541 1.772,-4.427 8.412,-3.542 15.496,-9.297 19.923,-17.267 4.428,-7.969 6.198,-16.824 4.87,-25.679 0,-1.771 0.886,-3.542 2.657,-3.542 1.771,-0.442 3.542,0.886 3.542,2.657 1.328,10.625 -0.886,20.808 -5.756,29.663 -5.313,9.298 -13.282,16.382 -23.465,20.367 0,0.442 0,0.442 -0.443,0.442l0 0z"/>
    </g>
   </g>
  </g>
 </g>
</svg>
