<?xml version="1.0" encoding="UTF-8"?>
<!DOCTYPE svg PUBLIC "-//W3C//DTD SVG 1.1//EN" "http://www.w3.org/Graphics/SVG/1.1/DTD/svg11.dtd">
<!-- Creator: CorelDRAW 2021 (64-Bit) -->
<svg xmlns="http://www.w3.org/2000/svg" xml:space="preserve" width="34px" height="30px" version="1.1" style="shape-rendering:geometricPrecision; text-rendering:geometricPrecision; image-rendering:optimizeQuality; fill-rule:evenodd; clip-rule:evenodd"
viewBox="0 0 0.713 0.633"
 xmlns:xlink="http://www.w3.org/1999/xlink"
 xmlns:xodm="http://www.corel.com/coreldraw/odm/2003">
 <defs>
  <style type="text/css">
   <![CDATA[
    .fil0 {fill:white;fill-rule:nonzero}
   ]]>
  </style>
 </defs>
 <g id="Layer_x0020_1">
  <metadata id="CorelCorpID_0Corel-Layer"/>
  <path class="fil0" d="M0.628 0.282l0 -0.011c0,-0.149 -0.122,-0.271 -0.272,-0.271 -0.15,0 -0.271,0.122 -0.271,0.271l0 0.011c-0.051,0.02 -0.085,0.07 -0.085,0.125 0,0.075 0.061,0.136 0.135,0.136 0,0 0,0 0,0 0.039,0 0.07,-0.031 0.07,-0.07l0 -0.132c0,-0.035 -0.026,-0.064 -0.061,-0.068l0 -0.002c0,-0.117 0.095,-0.212 0.212,-0.212 0.117,0 0.212,0.095 0.212,0.212l0 0.002c-0.034,0.004 -0.06,0.033 -0.06,0.068l0 0.132c0,0.032 0.022,0.06 0.053,0.068 -0.01,0.02 -0.031,0.033 -0.054,0.033l-0.09 0c-0.017,0 -0.03,0.013 -0.03,0.03 0,0.016 0.013,0.029 0.03,0.029l0.09 0c0.059,0 0.109,-0.042 0.119,-0.099 0.052,-0.021 0.087,-0.071 0.087,-0.127 0,-0.055 -0.034,-0.105 -0.085,-0.125l0 0z"/>
 </g>
</svg>
