<?xml version="1.0" encoding="UTF-8"?>
<!DOCTYPE svg PUBLIC "-//W3C//DTD SVG 1.1//EN" "http://www.w3.org/Graphics/SVG/1.1/DTD/svg11.dtd">
<!-- Creator: CorelDRAW 2021 (64-Bit) -->
<svg xmlns="http://www.w3.org/2000/svg" xml:space="preserve" width="26px" height="26px" version="1.1" style="shape-rendering:geometricPrecision; text-rendering:geometricPrecision; image-rendering:optimizeQuality; fill-rule:evenodd; clip-rule:evenodd"
viewBox="0 0 0.822 0.822"
 xmlns:xlink="http://www.w3.org/1999/xlink"
 xmlns:xodm="http://www.corel.com/coreldraw/odm/2003">
 <defs>
  <style type="text/css">
   <![CDATA[
    .fil0 {fill:#004DFF;fill-rule:nonzero}
   ]]>
  </style>
 </defs>
 <g id="Layer_x0020_1">
  <metadata id="CorelCorpID_0Corel-Layer"/>
  <path class="fil0" d="M0.32 0l-0.274 0c-0.012,0 -0.024,0.005 -0.033,0.013 -0.008,0.009 -0.013,0.021 -0.013,0.033l0 0.274c0,0.012 0.005,0.023 0.013,0.032 0.009,0.009 0.021,0.013 0.033,0.013l0.274 0c0.012,0 0.023,-0.004 0.032,-0.013 0.009,-0.009 0.013,-0.02 0.013,-0.032l0 -0.274c0,-0.012 -0.004,-0.024 -0.013,-0.033 -0.009,-0.008 -0.02,-0.013 -0.032,-0.013zm0.456 0l-0.274 0c-0.012,0 -0.023,0.005 -0.032,0.013 -0.008,0.009 -0.013,0.021 -0.013,0.033l0 0.274c0,0.012 0.005,0.023 0.013,0.032 0.009,0.009 0.02,0.013 0.032,0.013l0.274 0c0.013,0 0.024,-0.004 0.033,-0.013 0.008,-0.009 0.013,-0.02 0.013,-0.032l0 -0.274c0,-0.012 -0.005,-0.024 -0.013,-0.033 -0.009,-0.008 -0.02,-0.013 -0.033,-0.013zm-0.456 0.457l-0.274 0c-0.012,0 -0.024,0.005 -0.033,0.013 -0.008,0.009 -0.013,0.02 -0.013,0.032l0 0.274c0,0.013 0.005,0.024 0.013,0.033 0.009,0.008 0.021,0.013 0.033,0.013l0.274 0c0.012,0 0.023,-0.005 0.032,-0.013 0.009,-0.009 0.013,-0.02 0.013,-0.033l0 -0.274c0,-0.012 -0.004,-0.023 -0.013,-0.032 -0.009,-0.008 -0.02,-0.013 -0.032,-0.013l0 0zm0.365 0.045l-0.091 0 0 0.092 -0.092 0 0 0.091 0.092 0 0 0.091 0.091 0 0 -0.091 0.091 0 0 -0.091 -0.091 0 0 -0.092z"/>
 </g>
</svg>
