<?xml version="1.0" encoding="UTF-8"?>
<!DOCTYPE svg PUBLIC "-//W3C//DTD SVG 1.1//EN" "http://www.w3.org/Graphics/SVG/1.1/DTD/svg11.dtd">
<!-- Creator: CorelDRAW 2021 (64-Bit) -->
<svg xmlns="http://www.w3.org/2000/svg" xml:space="preserve" width="31px" height="31px" version="1.1" style="shape-rendering:geometricPrecision; text-rendering:geometricPrecision; image-rendering:optimizeQuality; fill-rule:evenodd; clip-rule:evenodd"
viewBox="0 0 0.917 0.917"
 xmlns:xlink="http://www.w3.org/1999/xlink"
 xmlns:xodm="http://www.corel.com/coreldraw/odm/2003">
 <defs>
  <style type="text/css">
   <![CDATA[
    .fil0 {fill:white;fill-rule:nonzero}
   ]]>
  </style>
 </defs>
 <g id="Layer_x0020_1">
  <metadata id="CorelCorpID_0Corel-Layer"/>
  <path id="Customize" class="fil0" d="M0.884 0.753l-0.43 0c-0.015,-0.056 -0.066,-0.098 -0.127,-0.098 -0.06,0 -0.111,0.042 -0.126,0.098l-0.168 0c-0.018,0 -0.033,0.015 -0.033,0.033 0,0.018 0.015,0.032 0.033,0.032l0.168 0c0.015,0.057 0.066,0.099 0.126,0.099 0.061,0 0.112,-0.042 0.127,-0.099l0.43 0c0.018,0 0.033,-0.014 0.033,-0.032 0,-0.018 -0.015,-0.033 -0.033,-0.033l0 0zm-0.557 0.098c-0.036,0 -0.065,-0.029 -0.065,-0.065 0,-0.036 0.029,-0.066 0.065,-0.066 0.036,0 0.066,0.03 0.066,0.066 0,0.036 -0.03,0.065 -0.066,0.065zm0.557 -0.425l-0.168 0c-0.015,-0.057 -0.066,-0.099 -0.127,-0.099 -0.061,0 -0.111,0.042 -0.126,0.099l-0.43 0c-0.018,0 -0.033,0.014 -0.033,0.032 0,0.018 0.015,0.033 0.033,0.033l0.43 0c0.015,0.056 0.065,0.098 0.126,0.098 0.061,0 0.112,-0.042 0.127,-0.098l0.168 0c0.018,0 0.033,-0.015 0.033,-0.033 0,-0.018 -0.015,-0.032 -0.033,-0.032zm-0.295 0.098c-0.036,0 -0.065,-0.03 -0.065,-0.066 0,-0.036 0.029,-0.065 0.065,-0.065 0.036,0 0.066,0.029 0.066,0.065 0,0.036 -0.03,0.066 -0.066,0.066zm-0.556 -0.36l0.168 0c0.015,0.056 0.066,0.098 0.126,0.098 0.061,0 0.112,-0.042 0.127,-0.098l0.43 0c0.018,0 0.033,-0.015 0.033,-0.033 0,-0.018 -0.015,-0.033 -0.033,-0.033l-0.43 0c-0.015,-0.056 -0.066,-0.098 -0.127,-0.098 -0.06,0 -0.111,0.042 -0.126,0.098l-0.168 0c-0.018,0 -0.033,0.015 -0.033,0.033 0,0.018 0.015,0.033 0.033,0.033l0 0zm0.294 -0.099c0.036,0 0.066,0.03 0.066,0.066 0,0.036 -0.03,0.065 -0.066,0.065 -0.036,0 -0.065,-0.029 -0.065,-0.065 0,-0.036 0.029,-0.066 0.065,-0.066z"/>
 </g>
</svg>
