<?xml version="1.0" encoding="UTF-8"?>
<!DOCTYPE svg PUBLIC "-//W3C//DTD SVG 1.1//EN" "http://www.w3.org/Graphics/SVG/1.1/DTD/svg11.dtd">
<!-- Creator: CorelDRAW 2021 (64-Bit) -->
<svg xmlns="http://www.w3.org/2000/svg" xml:space="preserve" width="35px" height="37px" version="1.1" style="shape-rendering:geometricPrecision; text-rendering:geometricPrecision; image-rendering:optimizeQuality; fill-rule:evenodd; clip-rule:evenodd"
viewBox="0 0 2094.671 2224.907"
 xmlns:xlink="http://www.w3.org/1999/xlink"
 xmlns:xodm="http://www.corel.com/coreldraw/odm/2003">
 <defs>
  <style type="text/css">
   <![CDATA[
    .fil0 {fill:#004DFF;fill-rule:nonzero}
   ]]>
  </style>
 </defs>
 <g id="Layer_x0020_1">
  <metadata id="CorelCorpID_0Corel-Layer"/>
  <g id="_1958248933600">
   <g>
    <g>
     <path class="fil0" d="M1391.834 1121.753c-10.004,81.638 -46.723,159.477 -107.2,219.971 -73.524,73.558 -176.306,108.197 -305.373,102.989 -90.509,-3.61 -132.316,20.061 -139.175,24.376 -27.728,24.29 -62.935,37.578 -100.084,37.578 -40.638,0 -78.835,-15.815 -107.544,-44.54 -49.595,-49.578 -57.588,-126.059 -23.74,-184.335l24.29 -38.507c8.269,-20.113 19.426,-59.823 16.83,-124.012 -5.174,-129.102 29.465,-231.832 102.989,-305.356 60.218,-60.185 137.232,-97.471 220.486,-107.424 11.775,-56.626 37.286,-109.59 74.091,-154.097l-873.367 0c-95.94,0 -174.037,78.046 -174.037,174.003l0 862.967 1815.565 0 0 -856.881 -220.624 270.373c-51.881,63.399 -123.927,106.547 -203.107,122.895l0 0z"/>
     <path class="fil0" d="M0 1771.351c0,95.906 78.097,173.951 174.037,173.951l494.607 0 0 149.231 -109.624 0c-35.997,0 -65.187,29.19 -65.187,65.187 0,35.997 29.19,65.187 65.187,65.187l697.508 0c35.997,0 65.186,-29.19 65.186,-65.187 0,-35.997 -29.189,-65.187 -65.186,-65.187l-109.625 0 0 -149.231 494.625 0c95.94,0 174.037,-78.045 174.037,-173.951l0 -55.612 -1815.565 0 0 55.612 0 0z"/>
     <path class="fil0" d="M726.216 1337.701c-0.018,0.018 -0.035,0.018 -0.035,0.035 -0.017,0.017 -0.017,0.017 -0.017,0.017l-0.017 0.017c-0.017,0.017 -0.017,0.017 -0.035,0.035 0,0 0,0 -0.017,0.017l0 0c0,0.017 -0.017,0.017 -0.017,0.017 0,0 0,0 -0.017,0.017 0,0 0,0 -0.017,0.017 0,0 0,0 0,0 0,0 -0.017,0.017 -0.017,0.017 0,0 0,0 0,0.018l-0.035 0.017c-8.234,8.509 -8.148,22.073 0.241,30.479 4.246,4.246 9.816,6.36 15.368,6.36 5.518,0 11.019,-2.08 15.248,-6.24 1.341,-1.272 67.164,-62.109 229.305,-55.594 91.231,3.679 161.179,-18.188 207.92,-64.929 95.786,-95.786 95.786,-251.636 0,-347.421 -46.397,-46.398 -108.094,-71.96 -173.728,-71.96 -65.616,0 -127.313,25.545 -173.71,71.96 -46.742,46.741 -68.574,116.689 -64.912,207.902 6.55,163.036 -54.993,228.686 -55.474,229.202 -0.034,0 -0.034,0.017 -0.034,0.017l0 0z"/>
     <path class="fil0" d="M1386.179 987.736c42.495,-12.738 80.778,-37.94 109.332,-72.837l83.288 -102.06 -296.692 -296.709 -101.648 83.03c-34.983,28.502 -60.27,66.734 -73.042,109.246 67.18,15.764 128.808,49.973 178.816,99.981 51.193,51.193 84.526,113.56 99.946,179.349l0 0z"/>
     <path class="fil0" d="M2055.528 39.143c-48.546,-48.529 -125.285,-52.397 -178.472,-8.939l-493.473 403.05 278.057 278.057 402.879 -493.73c43.406,-53.153 39.538,-129.892 -8.991,-178.438z"/>
    </g>
   </g>
  </g>
 </g>
</svg>
