<?xml version="1.0" encoding="UTF-8"?>
<!DOCTYPE svg PUBLIC "-//W3C//DTD SVG 1.1//EN" "http://www.w3.org/Graphics/SVG/1.1/DTD/svg11.dtd">
<!-- Creator: CorelDRAW 2021 (64-Bit) -->
<svg xmlns="http://www.w3.org/2000/svg" xml:space="preserve" width="35px" height="36px" version="1.1" style="shape-rendering:geometricPrecision; text-rendering:geometricPrecision; image-rendering:optimizeQuality; fill-rule:evenodd; clip-rule:evenodd"
viewBox="0 0 4495.916 4513.56"
 xmlns:xlink="http://www.w3.org/1999/xlink"
 xmlns:xodm="http://www.corel.com/coreldraw/odm/2003">
 <defs>
  <style type="text/css">
   <![CDATA[
    .fil0 {fill:#004DFF;fill-rule:nonzero}
   ]]>
  </style>
 </defs>
 <g id="Layer_x0020_1">
  <metadata id="CorelCorpID_0Corel-Layer"/>
  <g id="_1958248933600">
   <g>
    <g>
     <path class="fil0" d="M4422.819 3205.201l-84.871 -42.418 -1912.578 956.27c-109.789,55.597 -245.036,55.597 -354.825,0l-1912.577 -956.27 -84.871 42.418c-44.795,22.397 -73.097,68.163 -73.097,118.251 0,50.123 28.302,95.89 73.097,118.287l2115.735 1057.849c37.197,18.617 81.055,18.617 118.251,0l2115.736 -1057.849c44.794,-22.397 73.097,-68.164 73.097,-118.287 0,-50.088 -28.303,-95.854 -73.097,-118.251l0 0z"/>
     <path class="fil0" d="M4422.819 2588.128l-84.871 -42.454 -1912.578 956.306c-109.789,55.597 -245.036,55.597 -354.825,0l-1912.577 -956.306 -84.871 42.454c-44.795,22.361 -73.097,68.163 -73.097,118.251 0,50.087 28.302,95.89 73.097,118.287l2115.735 1057.849c37.197,18.617 81.055,18.617 118.251,0l2115.736 -1057.849c44.794,-22.397 73.097,-68.2 73.097,-118.287 0,-50.088 -28.303,-95.89 -73.097,-118.251l0 0z"/>
     <path class="fil0" d="M1085.072 1556.132l264.48 458.06c36.513,63.231 117.387,84.908 180.618,48.395l108.889 -62.87c66.039,50.088 136.975,91.317 212.196,123.436l0 124.841c0,73.025 59.198,132.222 132.222,132.222l528.961 0c73.025,0 132.222,-59.197 132.222,-132.258l0 -124.841c75.222,-32.083 146.158,-73.348 212.197,-123.4l108.889 62.87c63.23,36.513 144.105,14.836 180.617,-48.395l264.481 -458.06c36.512,-63.267 14.835,-144.141 -48.431,-180.654l-108.421 -62.582c5.149,-41.193 7.742,-82.243 7.742,-122.788 0,-40.545 -2.593,-81.595 -7.742,-122.788l108.457 -62.618c63.23,-36.513 84.907,-117.387 48.395,-180.618l-264.481 -458.06c-36.512,-63.267 -117.387,-84.944 -180.617,-48.395l-108.889 62.834c-66.039,-50.051 -136.975,-91.317 -212.197,-123.4l0 -124.841c0,-73.024 -59.197,-132.222 -132.222,-132.222l-528.961 0c-73.024,0 -132.222,59.234 -132.222,132.258l0 124.805c-75.221,32.119 -146.193,73.385 -212.196,123.436l-108.889 -62.87c-63.231,-36.513 -144.105,-14.836 -180.618,48.395l-264.48 458.06c-36.512,63.267 -14.835,144.141 48.395,180.654l108.457 62.582c-5.149,41.193 -7.742,82.243 -7.742,122.788 0,40.545 2.593,81.595 7.706,122.788l-108.421 62.618c-63.23,36.513 -84.907,117.387 -48.395,180.618l0 0zm1162.886 -762.727c218.75,0 396.702,177.953 396.702,396.703 0,218.75 -177.952,396.703 -396.702,396.703 -218.75,0 -396.703,-177.953 -396.703,-396.703 0,-218.75 177.953,-396.703 396.703,-396.703z"/>
     <path class="fil0" d="M73.097 2207.557l2115.735 1057.885c37.197,18.617 81.055,18.617 118.251,0l2115.736 -1057.885c44.794,-22.398 73.097,-68.164 73.097,-118.251 0,-50.088 -28.303,-95.89 -73.097,-118.287l-744.974 -372.506c-8.75,30.751 -21.281,60.926 -37.953,89.805l-264.48 458.097c-70.613,122.356 -202.331,198.369 -343.663,198.369 -0.036,0 0,0 -0.036,0 -44.218,0 -88.076,-7.454 -129.702,-21.857 -35.144,183.03 -196.461,321.733 -389.573,321.733l-528.961 0c-193.112,0 -354.429,-138.703 -389.573,-321.733 -41.625,14.403 -85.483,21.857 -129.701,21.857 -141.369,0 -273.087,-76.013 -343.699,-198.369l-264.48 -458.061c-16.528,-28.627 -29.275,-58.73 -38.133,-89.697l-744.794 372.362c-44.795,22.397 -73.097,68.199 -73.097,118.287 0,50.087 28.302,95.853 73.097,118.251l0 0z"/>
    </g>
   </g>
  </g>
 </g>
</svg>
