<?xml version="1.0" encoding="UTF-8"?>
<!DOCTYPE svg PUBLIC "-//W3C//DTD SVG 1.1//EN" "http://www.w3.org/Graphics/SVG/1.1/DTD/svg11.dtd">
<!-- Creator: CorelDRAW 2021 (64-Bit) -->
<svg xmlns="http://www.w3.org/2000/svg" xml:space="preserve" width="33px" height="33px" version="1.1" style="shape-rendering:geometricPrecision; text-rendering:geometricPrecision; image-rendering:optimizeQuality; fill-rule:evenodd; clip-rule:evenodd"
viewBox="0 0 1.043 1.038"
 xmlns:xlink="http://www.w3.org/1999/xlink"
 xmlns:xodm="http://www.corel.com/coreldraw/odm/2003">
 <defs>
  <style type="text/css">
   <![CDATA[
    .fil0 {fill:white;fill-rule:nonzero}
   ]]>
  </style>
 </defs>
 <g id="Layer_x0020_1">
  <metadata id="CorelCorpID_0Corel-Layer"/>
  <circle class="fil0" cx="0.521" cy="0.712" r="0.122"/>
  <circle class="fil0" cx="0.156" cy="0.695" r="0.087"/>
  <circle class="fil0" cx="0.886" cy="0.695" r="0.087"/>
  <path class="fil0" d="M0.73 1.037c-0.032,-0.109 -0.117,-0.186 -0.209,-0.186 -0.091,0 -0.176,0.077 -0.208,0.187l0.417 -0.001z"/>
  <path class="fil0" d="M0.313 0.951c-0.024,-0.089 -0.087,-0.152 -0.157,-0.152 -0.069,0 -0.132,0.063 -0.156,0.152l0.313 0z"/>
  <path class="fil0" d="M1.043 0.951c-0.024,-0.089 -0.087,-0.152 -0.157,-0.152 -0.069,0 -0.133,0.063 -0.156,0.152l0.313 0z"/>
  <path class="fil0" d="M0.73 0.156c-0.002,-0.006 -0.008,-0.01 -0.014,-0.011l-0.123 -0.018 -0.057 -0.117c-0.003,-0.006 -0.009,-0.01 -0.016,-0.01 -0.006,0 -0.013,0.004 -0.015,0.01l-0.055 0.118 -0.123 0.019c-0.006,0.001 -0.011,0.006 -0.013,0.012 -0.001,0.002 -0.001,0.004 -0.001,0.005 0,0.005 0.002,0.009 0.005,0.013l0.09 0.09 -0.02 0.13c0,0.001 -0.001,0.002 -0.001,0.003 0,0.006 0.003,0.011 0.008,0.014 0.003,0.002 0.006,0.003 0.01,0.003 0.003,0 0.006,0 0.008,-0.002l0.11 -0.061 0.11 0.059c0.002,0.002 0.005,0.002 0.008,0.002 0.01,0 0.017,-0.007 0.017,-0.017 0,-0.001 0,-0.002 0,-0.003l-0.022 -0.129 0.089 -0.092c0.003,-0.004 0.005,-0.008 0.005,-0.013 0,-0.002 0,-0.003 0,-0.005l0 0z"/>
  <path class="fil0" d="M0.313 0.325c-0.002,-0.006 -0.008,-0.011 -0.014,-0.012l-0.087 -0.012 -0.04 -0.083c-0.002,-0.006 -0.008,-0.01 -0.015,-0.01 0,0 0,0 -0.001,0 -0.006,0.001 -0.012,0.004 -0.015,0.011l-0.039 0.083 -0.087 0.014c-0.009,0.001 -0.015,0.008 -0.015,0.017 0,0.004 0.002,0.009 0.005,0.012l0.065 0.064 -0.015 0.092c0,0.001 0,0.002 0,0.003 0,0.009 0.008,0.017 0.018,0.017 0,0 0,0 0,0 0.003,0 0.006,-0.001 0.008,-0.002l0.077 -0.043 0.078 0.042c0.003,0.001 0.005,0.001 0.008,0.001 0.009,0 0.017,-0.007 0.017,-0.017 0,-0.001 0,-0.002 0,-0.003l-0.016 -0.091 0.063 -0.065c0.004,-0.004 0.006,-0.008 0.006,-0.013 0,-0.002 -0.001,-0.003 -0.001,-0.005l0 0z"/>
  <path class="fil0" d="M1.043 0.325c-0.003,-0.006 -0.008,-0.011 -0.015,-0.012l-0.086 -0.012 -0.04 -0.083c-0.003,-0.006 -0.009,-0.01 -0.016,-0.01 0,0 0,0 0,0 -0.007,0.001 -0.013,0.004 -0.015,0.011l-0.039 0.083 -0.087 0.014c-0.008,0.001 -0.014,0.008 -0.014,0.017 0,0.004 0.001,0.009 0.005,0.012l0.063 0.064 -0.014 0.092c0,0.001 0,0.002 0,0.003 0,0.009 0.008,0.017 0.017,0.017 0,0 0,0 0,0 0.003,0 0.006,-0.001 0.009,-0.002l0.077 -0.043 0.078 0.042c0.002,0.001 0.005,0.001 0.007,0.001 0.01,0 0.018,-0.007 0.018,-0.017 0,-0.001 -0.001,-0.002 -0.001,-0.003l-0.015 -0.091 0.063 -0.065c0.003,-0.004 0.005,-0.008 0.005,-0.013 0,-0.002 0,-0.003 0,-0.005l0 0z"/>
 </g>
</svg>
