<?xml version="1.0" encoding="UTF-8"?>
<!DOCTYPE svg PUBLIC "-//W3C//DTD SVG 1.1//EN" "http://www.w3.org/Graphics/SVG/1.1/DTD/svg11.dtd">
<!-- Creator: CorelDRAW 2021 (64-Bit) -->
<svg xmlns="http://www.w3.org/2000/svg" xml:space="preserve" width="34px" height="33px" version="1.1" style="shape-rendering:geometricPrecision; text-rendering:geometricPrecision; image-rendering:optimizeQuality; fill-rule:evenodd; clip-rule:evenodd"
viewBox="0 0 1264.435 1204.443"
 xmlns:xlink="http://www.w3.org/1999/xlink"
 xmlns:xodm="http://www.corel.com/coreldraw/odm/2003">
 <defs>
  <style type="text/css">
   <![CDATA[
    .fil0 {fill:#004DFF;fill-rule:nonzero}
   ]]>
  </style>
 </defs>
 <g id="Layer_x0020_1">
  <metadata id="CorelCorpID_0Corel-Layer"/>
  <g id="_1958248933600">
   <g>
    <path class="fil0" d="M432.4 137.467l832.035 0 0 -72.789c0,-33.644 -23.781,-64.678 -56.544,-64.678l-718.643 0c-32.774,0 -56.555,31.034 -56.555,64.678l0 72.789 -0.293 0zm110.782 -44.082c-11.308,0 -20.301,-8.982 -20.301,-20.302 0,-11.309 8.993,-20.301 20.301,-20.301l35.384 0c11.309,0 20.301,8.992 20.301,20.301 0,11.309 -8.992,20.302 -20.301,20.302l-35.384 0zm137.468 0c-11.309,0 -20.302,-8.982 -20.302,-20.302 0,-11.309 8.993,-20.301 20.302,-20.301l35.383 0c11.309,0 20.302,8.992 20.302,20.301 0,11.309 -8.993,20.302 -20.302,20.302l-35.383 0zm137.75 0c-11.309,0 -20.301,-8.982 -20.301,-20.302 0,-11.309 8.992,-20.301 20.301,-20.301l35.384 0c11.308,0 20.301,8.992 20.301,20.301 0,11.309 -8.993,20.302 -20.301,20.302l-35.384 0zm43.506 667.024l123.539 215.477c7.829,13.625 -2.317,30.447 -17.692,30.447l-64.667 0c-8.406,117.742 -102.378,196.632 -218.957,198.078 -42.636,0.587 -88.165,-8.992 -133.4,-31.034 -21.759,-10.439 -9.863,-43.789 13.625,-37.982 86.719,21.454 206.201,-25.238 215.77,-129.345l-59.458 0c-15.365,0 -25.804,-16.822 -17.105,-31.034l123.255 -214.9c7.536,-13.625 27.544,-13.342 35.09,0.293l0 0zm-393.83 -232.591l-430.953 0c-20.595,0 -37.123,16.821 -37.123,37.123l0 430.953c0,20.301 16.822,37.123 37.123,37.123l430.953 0c20.291,0 37.113,-16.822 37.113,-37.123l0 -430.953c0,-20.585 -16.822,-37.123 -37.113,-37.123l0 0zm-35.676 -40.593l35.676 0c42.92,0 77.716,35.09 77.716,77.716l0 104.117 661.805 0c32.774,0 56.545,-31.034 56.545,-64.678l0 -426.31 -831.742 0 0 309.155zm-317.267 186.759c-11.309,0 -20.302,-8.993 -20.302,-20.302 0,-11.308 8.993,-20.301 20.302,-20.301l109.619 0c11.309,0 20.302,8.993 20.302,20.301 0,11.309 -8.993,20.302 -20.302,20.302l-109.619 0zm0 119.776c-11.309,0 -20.302,-8.993 -20.302,-20.302 0,-11.309 8.993,-20.301 20.302,-20.301l275.217 0c11.309,0 20.302,8.992 20.302,20.301 0,11.309 -8.993,20.302 -20.302,20.302l-275.217 0zm0 119.775c-11.309,0 -20.302,-8.992 -20.302,-20.301 0,-11.309 8.993,-20.302 20.302,-20.302l275.217 0c11.309,0 20.302,8.993 20.302,20.302 0,11.309 -8.993,20.301 -20.302,20.301l-275.217 0zm430.659 -579.436c-11.309,0 -20.301,-8.992 -20.301,-20.301 0,-11.309 8.992,-20.302 20.301,-20.302l225.339 0c11.309,0 20.302,8.993 20.302,20.302 0,11.309 -8.993,20.301 -20.302,20.301l-225.339 0zm0 98.311c-11.309,0 -20.301,-8.993 -20.301,-20.301 0,-11.309 8.992,-20.302 20.301,-20.302l565.811 0c11.309,0 20.301,8.993 20.301,20.302 0,11.308 -8.992,20.301 -20.301,20.301l-565.811 0zm82.653 98.604c-11.309,0 -20.302,-8.992 -20.302,-20.301 0,-11.309 8.993,-20.302 20.302,-20.302l483.158 0c11.309,0 20.301,8.993 20.301,20.302 0,11.309 -8.992,20.301 -20.301,20.301l-483.158 0z"/>
   </g>
  </g>
 </g>
</svg>
