<?xml version="1.0" encoding="UTF-8"?>
<!DOCTYPE svg PUBLIC "-//W3C//DTD SVG 1.0//EN" "http://www.w3.org/TR/2001/REC-SVG-20010904/DTD/svg10.dtd">
<!-- Creator: CorelDRAW 2021 (64-Bit) -->
<svg xmlns="http://www.w3.org/2000/svg" xml:space="preserve" width="531px" height="81px" version="1.0" style="shape-rendering:geometricPrecision; text-rendering:geometricPrecision; image-rendering:optimizeQuality; fill-rule:evenodd; clip-rule:evenodd"
viewBox="0 0 530.89 80.696"
 xmlns:xlink="http://www.w3.org/1999/xlink"
 xmlns:xodm="http://www.corel.com/coreldraw/odm/2003">
 <defs>
  <style type="text/css">
   <![CDATA[
    .fil2 {fill:#155CFF;fill-rule:nonzero}
    .fil0 {fill:#333333;fill-rule:nonzero}
    .fil3 {fill:#333333;fill-rule:nonzero}
    .fil1 {fill:#999999;fill-rule:nonzero}
   ]]>
  </style>
 </defs>
 <g id="Layer_x0020_1">
  <metadata id="CorelCorpID_0Corel-Layer"/>
  <g id="_2104582210784">
   <path class="fil0" d="M41.469 79.575l-20.735 0 0 -58.28 -20.734 0 0 -20.174 62.203 0 0 20.174 -20.734 0 0 58.28zm38.554 1.121c-4.333,0 -8.107,-0.785 -11.319,-2.354 -3.213,-1.569 -5.66,-3.698 -7.342,-6.388 -1.681,-2.69 -2.521,-5.716 -2.521,-9.079 0,-5.678 2.017,-10.255 6.052,-13.729 4.035,-3.474 9.863,-5.212 17.484,-5.212l12.217 0 0 -1.008c0,-2.167 -0.71,-3.942 -2.13,-5.324 -1.42,-1.382 -3.176,-2.073 -5.268,-2.073 -3.586,0 -6.015,1.419 -7.285,4.258l-18.717 0c0.374,-3.511 1.626,-6.761 3.755,-9.75 2.129,-2.989 5.099,-5.38 8.91,-7.173 3.811,-1.794 8.257,-2.69 13.337,-2.69 5.455,0 10.2,0.99 14.234,2.97 4.035,1.98 7.136,4.689 9.303,8.126 2.166,3.437 3.25,7.322 3.25,11.656l0 36.649 -17.148 0 -1.121 -4.483 -0.56 0c-1.196,1.42 -3.157,2.708 -5.884,3.867 -2.728,1.158 -5.81,1.737 -9.247,1.737zm4.932 -14.682c2.989,0 5.342,-0.804 7.061,-2.41 1.718,-1.606 2.578,-3.792 2.578,-6.557l0 -1.008 -9.079 0c-2.391,0 -4.184,0.448 -5.38,1.345 -1.195,0.896 -1.793,2.092 -1.793,3.586 0,1.569 0.561,2.802 1.681,3.699 1.121,0.896 2.765,1.345 4.932,1.345zm60.186 13.561l-19.39 0 0 -78.454 19.39 0 0 78.454zm32.278 0l-19.39 0 0 -78.454 19.39 0 0 45.728 17.372 -25.554 21.631 0 -20.062 28.579 21.183 29.701 -21.631 0 -18.493 -26.674 0 26.674z"/>
   <path class="fil1" d="M363.411 77.527l-45.294 0 0 -73.733 8.427 0 0 65.833 36.867 0 0 7.9zm29.493 1.053c-4.705,0 -8.988,-1.158 -12.851,-3.476 -3.862,-2.317 -6.899,-5.547 -9.111,-9.69 -2.212,-4.144 -3.318,-8.884 -3.318,-14.221 0,-5.336 1.106,-10.076 3.318,-14.219 2.212,-4.144 5.249,-7.374 9.111,-9.691 3.863,-2.317 8.146,-3.476 12.851,-3.476 4.494,0 8.602,1.088 12.324,3.265 3.721,2.177 6.636,5.179 8.742,9.006 2.107,3.827 3.161,8.164 3.161,13.009 0,2.809 -0.176,4.74 -0.527,5.793l-41.08 0c0.491,4.916 2.387,8.866 5.688,11.85 3.3,2.985 7.198,4.477 11.692,4.477 3.16,0 5.986,-0.738 8.479,-2.212 2.493,-1.475 4.407,-3.546 5.741,-6.215l8.426 0c-1.825,5.056 -4.687,8.953 -8.584,11.692 -3.897,2.739 -8.585,4.108 -14.062,4.108zm16.326 -31.073c-0.281,-4.775 -1.948,-8.69 -5.003,-11.745 -3.055,-3.054 -6.829,-4.582 -11.323,-4.582 -4.705,0 -8.637,1.528 -11.798,4.582 -3.159,3.055 -5.02,6.97 -5.582,11.745l33.706 0zm35.814 31.073c-5.478,0 -9.919,-1.527 -13.325,-4.582 -3.406,-3.055 -5.109,-6.969 -5.109,-11.744 0,-5.267 1.739,-9.393 5.214,-12.377 3.476,-2.985 8.761,-4.477 15.853,-4.477l14.22 0 0 -1.58c0,-3.932 -1.123,-7.022 -3.371,-9.269 -2.247,-2.247 -5.337,-3.371 -9.269,-3.371 -3.792,0 -6.864,0.86 -9.217,2.581 -2.352,1.72 -3.669,3.845 -3.95,6.373l-7.899 0c0.21,-2.88 1.158,-5.565 2.843,-8.058 1.686,-2.493 4.091,-4.495 7.216,-6.004 3.125,-1.51 6.794,-2.265 11.007,-2.265 6.39,0 11.411,1.773 15.063,5.319 3.651,3.546 5.477,8.444 5.477,14.694l0 33.707 -6.847 0 -1.053 -6.32 -0.527 0c-1.193,1.896 -3.248,3.599 -6.162,5.108 -2.914,1.51 -6.302,2.265 -10.164,2.265zm0 -7.373c5.266,0 9.392,-1.457 12.376,-4.371 2.985,-2.915 4.477,-6.9 4.477,-11.956l0 -2.106 -14.22 0c-4.494,0 -7.812,0.877 -9.954,2.633 -2.142,1.755 -3.213,4.038 -3.213,6.847 0,2.668 0.913,4.827 2.739,6.478 1.826,1.65 4.424,2.475 7.795,2.475zm60.566 7.373c-4.564,0 -8.69,-1.158 -12.376,-3.476 -3.687,-2.317 -6.584,-5.547 -8.691,-9.69 -2.106,-4.144 -3.159,-8.884 -3.159,-14.221 0,-5.336 1.053,-10.076 3.159,-14.219 2.107,-4.144 5.004,-7.374 8.691,-9.691 3.686,-2.317 7.812,-3.476 12.376,-3.476 3.581,0 6.742,0.72 9.48,2.159 2.739,1.44 5.197,3.529 7.374,6.268l0.526 0 0 -28.44 7.9 0 0 73.733 -6.847 0 -1.053 -7.373 -0.526 0c-2.177,2.738 -4.635,4.827 -7.374,6.267 -2.738,1.439 -5.899,2.159 -9.48,2.159zm0.527 -7.373c3.019,0 5.811,-0.843 8.374,-2.528 2.563,-1.685 4.617,-4.038 6.162,-7.058 1.545,-3.019 2.317,-6.495 2.317,-10.428 0,-3.932 -0.772,-7.408 -2.317,-10.427 -1.545,-3.02 -3.599,-5.372 -6.162,-7.058 -2.563,-1.685 -5.355,-2.528 -8.374,-2.528 -3.02,0 -5.811,0.843 -8.374,2.528 -2.563,1.686 -4.617,4.038 -6.162,7.058 -1.545,3.019 -2.318,6.495 -2.318,10.427 0,3.933 0.773,7.409 2.318,10.428 1.545,3.02 3.599,5.373 6.162,7.058 2.563,1.685 5.354,2.528 8.374,2.528z"/>
   <path class="fil2" d="M237.949 79.575l0 -18.269 32.278 -27.347c1.121,-0.971 1.98,-1.979 2.578,-3.025 0.598,-1.047 0.897,-2.317 0.897,-3.811 0,-1.943 -0.729,-3.587 -2.186,-4.932 -1.457,-1.345 -3.306,-2.017 -5.548,-2.017 -2.39,0 -4.389,0.822 -5.996,2.466 -1.606,1.644 -2.409,3.736 -2.409,6.276l-20.735 0c0,-5.753 1.196,-10.815 3.587,-15.186 2.391,-4.372 5.79,-7.753 10.199,-10.144 4.408,-2.39 9.526,-3.586 15.354,-3.586 5.679,0 10.685,1.139 15.019,3.418 4.333,2.279 7.696,5.436 10.087,9.471 2.391,4.035 3.586,8.518 3.586,13.449 0,4.633 -1.139,8.574 -3.418,11.824 -2.279,3.25 -5.623,6.744 -10.031,10.48l-12.777 10.983 0 0.561 21.666 0 9.553 9.741 -9.553 9.648 -52.151 0z"/>
   <path class="fil2" d="M228.588 8.472l0 21.009c0,0.004 0,0.009 0,0.014 0,0.29 -0.116,0.568 -0.321,0.772l-7.411 7.411c-0.121,0.118 -0.284,0.184 -0.454,0.184 -0.358,0 -0.65,-0.29 -0.651,-0.649l0.001 -20.556 -20.556 0c0,0 0,0 0,0 -0.359,0 -0.65,-0.291 -0.65,-0.651 0,-0.169 0.066,-0.333 0.185,-0.454l7.411 -7.411c0.204,-0.206 0.482,-0.322 0.773,-0.322 0.004,0 0.009,0 0.014,0l21.016 0c0,0 0,0 0,0 0.355,0 0.643,0.288 0.643,0.643 0,0.003 0,0.007 0,0.01l0 0z"/>
   <path class="fil3" d="M313.198 70.217l-9.342 9.342c-0.002,0.002 -0.004,0.004 -0.006,0.006 -0.129,0.129 -0.304,0.201 -0.486,0.201l-6.591 0c-0.106,-0.002 -0.208,-0.045 -0.283,-0.12 -0.16,-0.159 -0.16,-0.418 -0.001,-0.578l9.14 -9.141 -9.14 -9.14c0,0 0,0 0,0 -0.159,-0.159 -0.159,-0.418 0,-0.578 0.076,-0.075 0.178,-0.118 0.285,-0.119l6.59 0c0.182,-0.001 0.358,0.071 0.487,0.2 0.002,0.002 0.004,0.004 0.006,0.006l9.345 9.345c0,0 0,0 0,0 0.158,0.158 0.158,0.414 0,0.572 -0.001,0.002 -0.003,0.003 -0.004,0.004l0 0z"/>
  </g>
 </g>
</svg>
