<?xml version="1.0" encoding="UTF-8"?>
<!DOCTYPE svg PUBLIC "-//W3C//DTD SVG 1.1//EN" "http://www.w3.org/Graphics/SVG/1.1/DTD/svg11.dtd">
<!-- Creator: CorelDRAW 2021 (64-Bit) -->
<svg xmlns="http://www.w3.org/2000/svg" xml:space="preserve" width="34px" height="34px" version="1.1" style="shape-rendering:geometricPrecision; text-rendering:geometricPrecision; image-rendering:optimizeQuality; fill-rule:evenodd; clip-rule:evenodd"
viewBox="0 0 4.184 4.184"
 xmlns:xlink="http://www.w3.org/1999/xlink"
 xmlns:xodm="http://www.corel.com/coreldraw/odm/2003">
 <defs>
  <style type="text/css">
   <![CDATA[
    .fil0 {fill:#004DFF;fill-rule:nonzero}
   ]]>
  </style>
 </defs>
 <g id="Layer_x0020_1">
  <metadata id="CorelCorpID_0Corel-Layer"/>
  <g id="_1813321119744">
   <path class="fil0" d="M2.604 0c-0.871,0 -1.58,0.707 -1.58,1.575 0,0.869 0.709,1.576 1.58,1.576 0.871,0 1.58,-0.707 1.58,-1.576 0,-0.868 -0.709,-1.575 -1.58,-1.575zm0.796 1.698l-0.918 0 0 -0.916 0.245 0 0 0.671 0.673 0 0 0.245z"/>
   <polygon class="fil0" points="0.118,2.964 0.774,2.31 0.947,2.484 0.291,3.138 "/>
   <polygon class="fil0" points="0,2.154 0.604,1.552 0.777,1.725 0.173,2.328 "/>
   <polygon class="fil0" points="1.861,4.01 2.465,3.408 2.638,3.581 2.034,4.184 "/>
   <polygon class="fil0" points="0.293,3.717 1.06,2.953 1.233,3.126 0.467,3.891 "/>
   <polygon class="fil0" points="1.048,3.892 1.704,3.238 1.878,3.412 1.222,4.066 "/>
  </g>
 </g>
</svg>
