<?xml version="1.0" encoding="UTF-8"?>
<!DOCTYPE svg PUBLIC "-//W3C//DTD SVG 1.1//EN" "http://www.w3.org/Graphics/SVG/1.1/DTD/svg11.dtd">
<!-- Creator: CorelDRAW 2021 (64-Bit) -->
<svg xmlns="http://www.w3.org/2000/svg" xml:space="preserve" width="30px" height="31px" version="1.1" style="shape-rendering:geometricPrecision; text-rendering:geometricPrecision; image-rendering:optimizeQuality; fill-rule:evenodd; clip-rule:evenodd"
viewBox="0 0 3.053 3.18"
 xmlns:xlink="http://www.w3.org/1999/xlink"
 xmlns:xodm="http://www.corel.com/coreldraw/odm/2003">
 <defs>
  <style type="text/css">
   <![CDATA[
    .fil0 {fill:#004DFF}
   ]]>
  </style>
 </defs>
 <g id="Layer_x0020_1">
  <metadata id="CorelCorpID_0Corel-Layer"/>
  <g id="_1813303577440">
   <path class="fil0" d="M0 2.433c0.08,0.151 0.191,0.331 0.279,0.488 0.029,0.051 0.021,0.049 0.093,0.06 0.35,0.051 0.721,0.114 1.065,0.162 0.421,0.058 0.435,0.075 0.875,-0.162l0.641 -0.334c0.116,-0.062 0.128,-0.187 0.052,-0.263 -0.09,-0.089 -0.198,-0.03 -0.321,0.008 -0.033,0.01 -0.066,0.018 -0.102,0.03l-0.21 0.062c-0.213,0.064 -0.058,0.02 -0.191,0.158 -0.141,0.145 -0.275,0.106 -0.459,0.09l-0.364 -0.04c-0.08,-0.024 -0.08,-0.129 -0.012,-0.161 0.047,-0.021 0.315,0.022 0.376,0.027 0.068,0.006 0.196,0.026 0.249,0.013 0.142,-0.035 0.172,-0.222 0.059,-0.306 -0.031,-0.023 -0.768,-0.338 -0.821,-0.351 -0.062,-0.014 -0.111,-0.017 -0.171,-0.011 -0.135,0.012 -0.196,0.046 -0.289,0.101l-0.681 0.393c-0.021,0.013 -0.044,0.03 -0.068,0.036z"/>
   <path class="fil0" d="M1.192 0.893c0,-0.061 0.013,-0.091 0.09,-0.091 0.038,0 0.061,0.036 0.082,0.058 0.026,0.025 0.053,0.046 0.072,0.074 0.084,-0.056 0.274,-0.306 0.341,-0.306 0.055,0 0.084,0.034 0.084,0.09 0,0.048 -0.102,0.134 -0.148,0.18 -0.058,0.057 -0.11,0.11 -0.167,0.167 -0.028,0.028 -0.049,0.064 -0.099,0.067 -0.057,0.004 -0.125,-0.085 -0.184,-0.143 -0.022,-0.023 -0.071,-0.058 -0.071,-0.096zm-0.091 -0.795l-0.132 -0.007c-0.068,-0.006 -0.169,-0.051 -0.194,0.057 -0.01,0.043 -0.017,0.087 -0.022,0.131 -0.038,0.35 -0.026,0.676 0.141,0.988 0.118,0.218 0.302,0.384 0.538,0.466 0.092,0.033 0.082,0.044 0.185,0.003 0.1,-0.04 0.16,-0.065 0.248,-0.128 0.127,-0.092 0.215,-0.201 0.291,-0.337 0.048,-0.085 0.079,-0.173 0.107,-0.269 0.075,-0.257 0.072,-0.579 0.016,-0.848 -0.036,-0.173 -0.208,0.017 -0.56,-0.088 -0.205,-0.062 -0.14,-0.094 -0.287,-0.035 -0.105,0.043 -0.207,0.067 -0.331,0.067z"/>
  </g>
 </g>
</svg>
