<?xml version="1.0" encoding="UTF-8"?>
<!DOCTYPE svg PUBLIC "-//W3C//DTD SVG 1.1//EN" "http://www.w3.org/Graphics/SVG/1.1/DTD/svg11.dtd">
<!-- Creator: CorelDRAW 2021 (64-Bit) -->
<svg xmlns="http://www.w3.org/2000/svg" xml:space="preserve" width="30px" height="30px" version="1.1" style="shape-rendering:geometricPrecision; text-rendering:geometricPrecision; image-rendering:optimizeQuality; fill-rule:evenodd; clip-rule:evenodd"
viewBox="0 0 3.342 3.342"
 xmlns:xlink="http://www.w3.org/1999/xlink"
 xmlns:xodm="http://www.corel.com/coreldraw/odm/2003">
 <defs>
  <style type="text/css">
   <![CDATA[
    .fil0 {fill:#004DFF;fill-rule:nonzero}
   ]]>
  </style>
 </defs>
 <g id="Layer_x0020_1">
  <metadata id="CorelCorpID_0Corel-Layer"/>
  <g id="_1813322825616">
   <path class="fil0" d="M0.432 2.473c-0.154,-0.237 -0.236,-0.513 -0.236,-0.802 0,-0.394 0.153,-0.764 0.432,-1.043 0.279,-0.279 0.649,-0.432 1.043,-0.432 0.289,0 0.565,0.082 0.802,0.236 0.029,-0.06 0.076,-0.111 0.133,-0.147 -0.274,-0.185 -0.597,-0.285 -0.935,-0.285 -0.446,0 -0.866,0.174 -1.182,0.489 -0.315,0.316 -0.489,0.736 -0.489,1.182 0,0.338 0.1,0.661 0.285,0.935 0.036,-0.057 0.087,-0.104 0.147,-0.133l0 0z"/>
   <path class="fil0" d="M3.094 0.794c-0.038,0.055 -0.091,0.099 -0.152,0.127 0.133,0.225 0.204,0.482 0.204,0.75 0,0.394 -0.153,0.764 -0.432,1.043 -0.279,0.279 -0.649,0.432 -1.043,0.432 -0.268,0 -0.525,-0.071 -0.75,-0.204 -0.028,0.061 -0.072,0.114 -0.127,0.152 0.261,0.161 0.562,0.248 0.877,0.248 0.446,0 0.866,-0.174 1.182,-0.489 0.315,-0.316 0.489,-0.736 0.489,-1.182 0,-0.315 -0.087,-0.616 -0.248,-0.877l0 0z"/>
   <path class="fil0" d="M2.631 0.591c0,0.091 0.074,0.165 0.165,0.165 0.091,0 0.164,-0.074 0.164,-0.165 0,-0.091 -0.073,-0.164 -0.164,-0.164 -0.091,0 -0.165,0.073 -0.165,0.164z"/>
   <path class="fil0" d="M0.756 2.796c0,-0.091 -0.074,-0.165 -0.165,-0.165 -0.091,0 -0.164,0.074 -0.164,0.165 0,0.091 0.073,0.164 0.164,0.164 0.091,0 0.165,-0.073 0.165,-0.164z"/>
   <path class="fil0" d="M1.16 2.538c-0.066,-0.157 -0.112,-0.348 -0.135,-0.554 -0.081,-0.047 -0.142,-0.123 -0.168,-0.215l-0.4 0c0.021,0.27 0.132,0.516 0.301,0.707 0.045,0.051 0.093,0.098 0.145,0.14 0.132,0.107 0.286,0.187 0.454,0.232 -0.068,-0.067 -0.137,-0.166 -0.197,-0.31z"/>
   <path class="fil0" d="M2.182 0.804c0.088,0.211 0.14,0.481 0.15,0.769l0.553 0c-0.02,-0.253 -0.118,-0.484 -0.269,-0.67 -0.042,-0.052 -0.089,-0.1 -0.14,-0.145 -0.139,-0.123 -0.307,-0.215 -0.491,-0.264 0.068,0.067 0.137,0.166 0.197,0.31l0 0z"/>
   <path class="fil0" d="M0.857 1.573c0.026,-0.092 0.087,-0.168 0.168,-0.215 0.023,-0.206 0.069,-0.397 0.135,-0.554 0.06,-0.144 0.129,-0.243 0.197,-0.31 -0.489,0.13 -0.859,0.559 -0.9,1.079l0.4 0z"/>
   <path class="fil0" d="M2.332 1.769c-0.01,0.288 -0.062,0.558 -0.15,0.769 -0.06,0.144 -0.129,0.243 -0.197,0.31 0.489,-0.13 0.859,-0.559 0.9,-1.079l-0.553 0z"/>
   <path class="fil0" d="M1.671 0.551c-0.206,0 -0.38,0.318 -0.442,0.761 0.153,0.01 0.281,0.117 0.322,0.261l0.585 0c-0.02,-0.573 -0.221,-1.022 -0.465,-1.022l0 0z"/>
   <path class="fil0" d="M1.671 2.791c0.244,0 0.445,-0.449 0.465,-1.022l-0.585 0c-0.041,0.144 -0.169,0.251 -0.322,0.261 0.062,0.443 0.236,0.761 0.442,0.761z"/>
   <path class="fil0" d="M1.204 1.506c-0.091,0 -0.165,0.074 -0.165,0.165 0,0.091 0.074,0.165 0.165,0.165 0.091,0 0.165,-0.074 0.165,-0.165 0,-0.091 -0.074,-0.165 -0.165,-0.165z"/>
  </g>
 </g>
</svg>
