<?xml version="1.0" encoding="UTF-8"?>
<!DOCTYPE svg PUBLIC "-//W3C//DTD SVG 1.1//EN" "http://www.w3.org/Graphics/SVG/1.1/DTD/svg11.dtd">
<!-- Creator: CorelDRAW 2021 (64-Bit) -->
<svg xmlns="http://www.w3.org/2000/svg" xml:space="preserve" width="33px" height="32px" version="1.1" style="shape-rendering:geometricPrecision; text-rendering:geometricPrecision; image-rendering:optimizeQuality; fill-rule:evenodd; clip-rule:evenodd"
viewBox="0 0 1.286 1.28"
 xmlns:xlink="http://www.w3.org/1999/xlink"
 xmlns:xodm="http://www.corel.com/coreldraw/odm/2003">
 <defs>
  <style type="text/css">
   <![CDATA[
    .fil0 {fill:#004DFF;fill-rule:nonzero}
   ]]>
  </style>
 </defs>
 <g id="Layer_x0020_1">
  <metadata id="CorelCorpID_0Corel-Layer"/>
  <g id="_1813401673936">
   <path class="fil0" d="M0.782 0.339l0.126 -0.091c0.014,-0.01 0.02,-0.028 0.014,-0.045 -0.005,-0.017 -0.02,-0.028 -0.038,-0.028l-0.155 0 -0.048 -0.147c-0.005,-0.017 -0.02,-0.028 -0.038,-0.028 -0.017,0 -0.033,0.011 -0.038,0.028l-0.048 0.147 -0.155 0c-0.017,0 -0.033,0.011 -0.038,0.028 -0.006,0.017 0,0.035 0.014,0.045l0.126 0.091 -0.048 0.147c-0.006,0.017 0,0.035 0.014,0.045 0.015,0.011 0.034,0.011 0.048,0l0.125 -0.091 0.126 0.091c0.013,0.011 0.033,0.011 0.047,0 0.014,-0.01 0.02,-0.028 0.014,-0.045l-0.048 -0.147z"/>
   <path class="fil0" d="M0.362 0.335l-0.065 0c-0.017,0 -0.033,-0.011 -0.038,-0.028l-0.02 -0.061c-0.005,-0.017 -0.021,-0.028 -0.038,-0.028 -0.017,0 -0.033,0.011 -0.038,0.028l-0.02 0.061c-0.006,0.017 -0.021,0.028 -0.038,0.028l-0.065 0c-0.017,0 -0.033,0.011 -0.038,0.028 -0.005,0.016 0,0.035 0.015,0.045l0.052 0.038c0.014,0.01 0.02,0.028 0.014,0.045 0,0 -0.02,0.061 -0.02,0.061 -0.011,0.036 0.032,0.067 0.062,0.045l0.052 -0.038c0.014,-0.01 0.033,-0.01 0.048,0 0,0 0.052,0.038 0.052,0.038 0.03,0.022 0.074,-0.008 0.062,-0.045l-0.02 -0.061c-0.006,-0.017 0,-0.035 0.014,-0.045l0.052 -0.038c0.014,-0.01 0.02,-0.029 0.015,-0.045 -0.005,-0.017 -0.021,-0.028 -0.038,-0.028l0 0z"/>
   <path class="fil0" d="M0.968 0.491c0,0 -0.02,0.061 -0.02,0.061 -0.012,0.036 0.031,0.067 0.062,0.045l0.052 -0.038c0.014,-0.01 0.033,-0.01 0.047,0l0.052 0.038c0.031,0.022 0.074,-0.009 0.062,-0.045l-0.02 -0.061c-0.005,-0.017 0,-0.035 0.015,-0.045l0.052 -0.038c0.014,-0.01 0.02,-0.029 0.014,-0.045 -0.005,-0.017 -0.021,-0.028 -0.038,-0.028l-0.064 0c-0.018,0 -0.033,-0.011 -0.039,-0.028l-0.02 -0.061c-0.005,-0.017 -0.02,-0.028 -0.038,-0.028 -0.017,0 -0.033,0.011 -0.038,0.028l-0.02 0.061c-0.005,0.017 -0.021,0.028 -0.038,0.028l-0.065 0c-0.017,0 -0.032,0.011 -0.038,0.028 -0.005,0.016 0.001,0.035 0.015,0.045l0.052 0.038c0.014,0.01 0.02,0.028 0.015,0.045l0 0z"/>
   <path class="fil0" d="M0.703 0.637l-0.12 0c-0.067,0 -0.121,0.054 -0.121,0.121l0 0.402c0,0.066 0.054,0.12 0.121,0.12l0.12 0c0.067,0 0.121,-0.054 0.121,-0.12l0 -0.402c0,-0.067 -0.054,-0.121 -0.121,-0.121z"/>
   <path class="fil0" d="M1.166 0.798l-0.121 0c-0.066,0 -0.121,0.054 -0.121,0.121l0 0.241c0,0.066 0.055,0.12 0.121,0.12l0.121 0c0.066,0 0.12,-0.054 0.12,-0.12l0 -0.241c0,-0.067 -0.054,-0.121 -0.12,-0.121z"/>
   <path class="fil0" d="M0.241 0.798l-0.12 0c-0.067,0 -0.121,0.054 -0.121,0.121l0 0.241c0,0.066 0.054,0.12 0.121,0.12l0.12 0c0.067,0 0.121,-0.054 0.121,-0.12l0 -0.241c0,-0.067 -0.054,-0.121 -0.121,-0.121z"/>
  </g>
 </g>
</svg>
