<?xml version="1.0" encoding="UTF-8"?>
<!DOCTYPE svg PUBLIC "-//W3C//DTD SVG 1.1//EN" "http://www.w3.org/Graphics/SVG/1.1/DTD/svg11.dtd">
<!-- Creator: CorelDRAW 2021 (64-Bit) -->
<svg xmlns="http://www.w3.org/2000/svg" xml:space="preserve" width="32px" height="37px" version="1.1" style="shape-rendering:geometricPrecision; text-rendering:geometricPrecision; image-rendering:optimizeQuality; fill-rule:evenodd; clip-rule:evenodd"
viewBox="0 0 1.212 1.381"
 xmlns:xlink="http://www.w3.org/1999/xlink"
 xmlns:xodm="http://www.corel.com/coreldraw/odm/2003">
 <defs>
  <style type="text/css">
   <![CDATA[
    .fil0 {fill:#004DFF}
   ]]>
  </style>
 </defs>
 <g id="Layer_x0020_1">
  <metadata id="CorelCorpID_0Corel-Layer"/>
  <g id="_1813349468800">
   <path class="fil0" d="M0.1 0.883c0,0.088 -0.009,0.052 0.076,0.09 0.019,0.008 0.009,0.028 0.034,0.078l0.025 0.053c0,0.002 -0.031,0.073 -0.034,0.08 0.012,0.008 0.038,0.036 0.049,0.048l0.01 0.011c0,0 0.001,0.001 0.001,0.001 0.002,0.002 0.005,0.004 0.006,0.006 0,0 0.001,0.001 0.001,0.001 0.001,0.001 0.002,0.001 0.002,0.002 0.002,0.002 0.002,0.002 0.004,0.004l0.006 0.006c0.024,0.025 0.01,0.021 0.091,-0.015 0.014,-0.006 0.011,0 0.034,0.011l0.073 0.03c0.035,0.012 0.023,-0.004 0.046,0.057 0.017,0.044 -0.009,0.034 0.145,0.034 0.01,0 0.026,-0.054 0.033,-0.071 0.006,-0.017 0.008,-0.012 0.032,-0.02 0.034,-0.011 0.059,-0.021 0.09,-0.04 0.008,-0.005 0.007,-0.005 0.016,-0.001 0.012,0.005 0.064,0.031 0.073,0.031 0.012,0 0.08,-0.08 0.098,-0.092 -0.005,-0.021 -0.035,-0.076 -0.035,-0.083l0.024 -0.051c0.017,-0.032 0.016,-0.041 0.024,-0.068 0.005,-0.014 0.001,-0.007 0.036,-0.021 0.063,-0.024 0.051,-0.007 0.051,-0.081 0,-0.007 -0.002,-0.009 -0.008,-0.009l-0.253 0c-0.016,0 -0.001,0.031 -0.026,0.094 -0.011,0.027 -0.029,0.052 -0.048,0.073 -0.06,0.066 -0.179,0.093 -0.269,0.049 -0.016,-0.007 -0.024,-0.012 -0.038,-0.022l-0.03 -0.025c0,0 -0.001,-0.001 -0.001,-0.001 -0.02,-0.02 -0.039,-0.046 -0.05,-0.074 -0.007,-0.016 -0.01,-0.029 -0.014,-0.046 -0.008,-0.035 0.003,-0.048 -0.012,-0.048l-0.253 0c-0.007,0 -0.009,0.002 -0.009,0.009z"/>
   <path class="fil0" d="M0.982 0.294c-0.023,0 -0.032,-0.016 -0.057,-0.041 -0.025,-0.025 -0.041,-0.033 -0.041,-0.057 0,-0.018 0.014,-0.026 0.032,-0.026 0.02,0 0.047,0.041 0.063,0.052 0.032,-0.021 0.095,-0.106 0.118,-0.106 0.019,0 0.032,0.007 0.032,0.028 0,0.021 -0.052,0.064 -0.067,0.08 -0.013,0.013 -0.024,0.024 -0.038,0.037 -0.009,0.01 -0.026,0.033 -0.042,0.033zm-0.181 -0.092c0,0.029 0.008,0.063 0.017,0.083l0.028 0.047c0.02,0.023 0.042,0.043 0.071,0.056 0.126,0.06 0.262,-0.019 0.288,-0.136 0.002,-0.011 0.006,-0.034 0.007,-0.045 0,-0.006 -0.004,-0.039 -0.005,-0.043 -0.011,-0.049 -0.024,-0.064 -0.051,-0.099 -0.01,-0.013 -0.042,-0.036 -0.057,-0.043 -0.136,-0.068 -0.298,0.032 -0.298,0.18z"/>
   <path class="fil0" d="M0.33 0.776c0,0.01 0.01,0.015 0.02,0.015l0.511 0c0.048,0 -0.004,-0.096 -0.011,-0.109 -0.008,-0.014 -0.016,-0.026 -0.025,-0.038l-0.033 -0.034c-0.046,-0.044 -0.123,-0.072 -0.186,-0.072 -0.013,0 -0.015,0.002 -0.029,0.003 -0.062,0.003 -0.119,0.034 -0.163,0.075l-0.008 0.007c-0.036,0.036 -0.076,0.104 -0.076,0.153z"/>
   <path class="fil0" d="M0.25 0.205c0.023,0.034 0.066,0.05 0.061,0.081 -0.003,0.013 -0.014,0.025 -0.027,0.025 -0.03,0 -0.059,-0.049 -0.08,-0.063 -0.01,0.015 -0.056,0.063 -0.075,0.063 -0.027,0 -0.029,-0.021 -0.029,-0.037 0,-0.014 0.051,-0.055 0.061,-0.069 -0.022,-0.033 -0.061,-0.043 -0.061,-0.081 0,-0.016 0.013,-0.026 0.029,-0.026 0.02,0 0.03,0.018 0.041,0.028 0.011,0.012 0.025,0.023 0.034,0.036 0.023,-0.016 0.049,-0.064 0.08,-0.064 0.014,0 0.023,0.011 0.027,0.023 0.003,0.012 -0.003,0.023 -0.012,0.033 -0.014,0.015 -0.039,0.035 -0.049,0.051zm-0.049 0.204c0.039,0 0.061,-0.005 0.094,-0.021 0.016,-0.009 0.048,-0.029 0.058,-0.042 0.035,-0.042 0.057,-0.085 0.057,-0.144 0,-0.104 -0.092,-0.201 -0.192,-0.201 -0.053,0 -0.091,0.007 -0.133,0.039 -0.032,0.024 -0.052,0.047 -0.068,0.084 -0.005,0.011 -0.009,0.024 -0.012,0.037 -0.03,0.123 0.073,0.248 0.196,0.248z"/>
   <path class="fil0" d="M0.465 0.357c0,0.047 0.006,0.083 0.044,0.117 0.054,0.05 0.139,0.051 0.194,0 0.09,-0.083 0.036,-0.246 -0.1,-0.246 -0.038,0 -0.074,0.019 -0.094,0.038 -0.02,0.017 -0.044,0.055 -0.044,0.091z"/>
   <path class="fil0" d="M0.597 1.009c0.048,0 0.078,-0.012 0.107,-0.042 0.01,-0.011 0.021,-0.027 0.026,-0.043 0.004,-0.011 0.006,-0.016 0.008,-0.027 0.002,-0.014 0.006,-0.023 -0.006,-0.023l-0.253 0c-0.016,0 -0.002,0.036 0.001,0.048 0.017,0.047 0.067,0.087 0.117,0.087z"/>
   <path class="fil0" d="M0.836 0.581c0,0.045 0.033,0.029 0.04,0.021 0.006,-0.007 0.01,-0.016 0.015,-0.023 0.012,-0.02 0.068,-0.117 0.068,-0.124 0,-0.012 -0.01,-0.023 -0.029,-0.023 -0.017,0 -0.061,0.09 -0.072,0.108 -0.003,0.006 -0.022,0.038 -0.022,0.041z"/>
   <path class="fil0" d="M0.252 0.455c0,0.009 0.043,0.077 0.05,0.091 0.017,0.03 0.039,0.084 0.067,0.06 0.021,-0.018 -0.009,-0.054 -0.03,-0.091 -0.009,-0.015 -0.016,-0.028 -0.025,-0.044 -0.005,-0.008 -0.008,-0.014 -0.013,-0.022 -0.019,-0.034 -0.049,-0.013 -0.049,0.006z"/>
  </g>
 </g>
</svg>
