<?xml version="1.0" encoding="UTF-8"?>
<!DOCTYPE svg PUBLIC "-//W3C//DTD SVG 1.1//EN" "http://www.w3.org/Graphics/SVG/1.1/DTD/svg11.dtd">
<!-- Creator: CorelDRAW 2021 (64-Bit) -->
<svg xmlns="http://www.w3.org/2000/svg" xml:space="preserve" width="46px" height="24px" version="1.1" style="shape-rendering:geometricPrecision; text-rendering:geometricPrecision; image-rendering:optimizeQuality; fill-rule:evenodd; clip-rule:evenodd"
viewBox="0 0 7.693 4.029"
 xmlns:xlink="http://www.w3.org/1999/xlink"
 xmlns:xodm="http://www.corel.com/coreldraw/odm/2003">
 <defs>
  <style type="text/css">
   <![CDATA[
    .fil0 {fill:#004DFF;fill-rule:nonzero}
   ]]>
  </style>
 </defs>
 <g id="Layer_x0020_1">
  <metadata id="CorelCorpID_0Corel-Layer"/>
  <g id="_1812430788768">
   <polygon class="fil0" points="1.137,3.994 0.564,3.994 0.564,2.167 0,2.332 0,1.897 1.085,1.522 1.137,1.522 "/>
   <path id="_1" class="fil0" d="M3.599 2.984c0,0.334 -0.075,0.592 -0.225,0.773 -0.15,0.181 -0.361,0.272 -0.634,0.272 -0.275,0 -0.488,-0.091 -0.638,-0.274 -0.15,-0.182 -0.226,-0.439 -0.226,-0.771l0 -0.452c0,-0.334 0.075,-0.592 0.225,-0.773 0.15,-0.181 0.362,-0.272 0.636,-0.272 0.274,0 0.486,0.091 0.637,0.274 0.15,0.182 0.225,0.439 0.225,0.773l0 0.45zm-0.572 -0.525c0,-0.178 -0.023,-0.311 -0.069,-0.399 -0.047,-0.087 -0.12,-0.131 -0.221,-0.131 -0.099,0 -0.17,0.04 -0.215,0.122 -0.045,0.082 -0.069,0.205 -0.072,0.37l0 0.632c0,0.185 0.023,0.32 0.069,0.406 0.047,0.085 0.12,0.128 0.221,0.128 0.098,0 0.169,-0.042 0.216,-0.125 0.046,-0.083 0.07,-0.214 0.071,-0.391l0 -0.612z"/>
   <polygon id="_2" class="fil0" points="4.937,2.593 5.516,2.593 5.516,3.083 4.937,3.083 4.937,3.746 4.403,3.746 4.403,3.083 3.822,3.083 3.822,2.593 4.403,2.593 4.403,1.948 4.937,1.948 "/>
   <path class="fil0" d="M7.096 1.425l0.527 -0.383c0.059,-0.043 0.084,-0.119 0.061,-0.189 -0.022,-0.069 -0.087,-0.116 -0.161,-0.116l-0.651 0 -0.202 -0.62c-0.022,-0.07 -0.087,-0.117 -0.16,-0.117 -0.074,0 -0.139,0.047 -0.161,0.117l-0.202 0.62 -0.651 0c-0.074,0 -0.139,0.047 -0.161,0.116 -0.023,0.07 0.002,0.146 0.061,0.189l0.528 0.383 -0.202 0.62c-0.022,0.07 0.002,0.146 0.062,0.189 0.059,0.043 0.139,0.043 0.198,0l0.528 -0.383 0.527 0.383c0.059,0.043 0.14,0.043 0.199,0 0.059,-0.043 0.084,-0.119 0.061,-0.189l-0.201 -0.62z"/>
  </g>
 </g>
</svg>
